<svg width="709" height="569" viewBox="0 0 709 569" fill="none" xmlns="http://www.w3.org/2000/svg">
<g clip-path="url(#clip0_4_105)">
<path d="M708.168 79.0115H134.952C134.843 79.0118 134.734 78.9916 134.633 78.952C134.532 78.9124 134.44 78.8542 134.362 78.7807C134.284 78.7072 134.223 78.6198 134.181 78.5237C134.139 78.4275 134.117 78.3244 134.117 78.2203C134.117 78.1162 134.139 78.0131 134.181 77.9169C134.223 77.8207 134.284 77.7334 134.362 77.6599C134.44 77.5864 134.532 77.5282 134.633 77.4886C134.734 77.449 134.843 77.4288 134.952 77.4291H708.168C708.277 77.4288 708.386 77.449 708.487 77.4886C708.588 77.5282 708.681 77.5864 708.758 77.6599C708.836 77.7334 708.897 77.8207 708.939 77.9169C708.981 78.0131 709.003 78.1162 709.003 78.2203C709.003 78.3244 708.981 78.4275 708.939 78.5237C708.897 78.6198 708.836 78.7072 708.758 78.7807C708.681 78.8542 708.588 78.9124 708.487 78.952C708.386 78.9916 708.277 79.0118 708.168 79.0115V79.0115Z" fill="#3F3D56"/>
<path d="M153.678 67.9348C158.732 67.9348 162.829 64.0383 162.829 59.2318C162.829 54.4252 158.732 50.5287 153.678 50.5287C148.623 50.5287 144.526 54.4252 144.526 59.2318C144.526 64.0383 148.623 67.9348 153.678 67.9348Z" fill="#3F3D56"/>
<path d="M185.292 67.9348C190.346 67.9348 194.443 64.0383 194.443 59.2318C194.443 54.4252 190.346 50.5287 185.292 50.5287C180.238 50.5287 176.14 54.4252 176.14 59.2318C176.14 64.0383 180.238 67.9348 185.292 67.9348Z" fill="#3F3D56"/>
<path d="M216.906 67.9348C221.96 67.9348 226.058 64.0383 226.058 59.2318C226.058 54.4252 221.96 50.5287 216.906 50.5287C211.852 50.5287 207.755 54.4252 207.755 59.2318C207.755 64.0383 211.852 67.9348 216.906 67.9348Z" fill="#3F3D56"/>
<path d="M689.226 55.8521H666.764C666.322 55.8521 665.899 55.6854 665.587 55.3886C665.275 55.0919 665.1 54.6894 665.1 54.2697C665.1 53.85 665.275 53.4475 665.587 53.1508C665.899 52.854 666.322 52.6873 666.764 52.6873H689.226C689.668 52.6873 690.091 52.854 690.403 53.1508C690.715 53.4475 690.89 53.85 690.89 54.2697C690.89 54.6894 690.715 55.0919 690.403 55.3886C690.091 55.6854 689.668 55.8521 689.226 55.8521Z" fill="#3F3D56"/>
<path d="M689.226 61.786H666.764C666.545 61.7865 666.328 61.7459 666.126 61.6666C665.923 61.5873 665.739 61.4708 665.584 61.3238C665.429 61.1768 665.307 61.0022 665.223 60.81C665.139 60.6178 665.096 60.4117 665.096 60.2036C665.096 59.9955 665.139 59.7894 665.223 59.5972C665.307 59.405 665.429 59.2304 665.584 59.0834C665.739 58.9364 665.923 58.8199 666.126 58.7406C666.328 58.6613 666.545 58.6207 666.764 58.6212H689.226C689.445 58.6207 689.662 58.6613 689.864 58.7406C690.067 58.8199 690.251 58.9364 690.405 59.0834C690.56 59.2304 690.683 59.405 690.767 59.5972C690.851 59.7894 690.894 59.9955 690.894 60.2036C690.894 60.4117 690.851 60.6178 690.767 60.81C690.683 61.0022 690.56 61.1768 690.405 61.3238C690.251 61.4708 690.067 61.5873 689.864 61.6666C689.662 61.7459 689.445 61.7865 689.226 61.786V61.786Z" fill="#3F3D56"/>
<path d="M689.226 67.7199H666.764C666.322 67.7199 665.899 67.5532 665.587 67.2565C665.275 66.9597 665.1 66.5572 665.1 66.1375C665.1 65.7179 665.275 65.3154 665.587 65.0186C665.899 64.7219 666.322 64.5552 666.764 64.5552H689.226C689.668 64.5552 690.091 64.7219 690.403 65.0186C690.715 65.3154 690.89 65.7179 690.89 66.1375C690.89 66.5572 690.715 66.9597 690.403 67.2565C690.091 67.5532 689.668 67.7199 689.226 67.7199Z" fill="#3F3D56"/>
<path d="M304.588 321.177C304.276 321.177 303.978 321.295 303.758 321.505C303.537 321.714 303.414 321.998 303.413 322.294V468.327C303.414 468.623 303.537 468.907 303.758 469.116C303.978 469.326 304.276 469.444 304.588 469.444H518.518C518.829 469.444 519.128 469.326 519.348 469.116C519.568 468.907 519.692 468.623 519.693 468.327V322.294C519.692 321.998 519.568 321.714 519.348 321.505C519.128 321.295 518.829 321.177 518.518 321.177L304.588 321.177Z" fill="#E4E4E4"/>
<path d="M506.709 333.232V437.006C506.708 437.699 506.419 438.364 505.903 438.854C505.388 439.344 504.689 439.62 503.96 439.621H318.712C318.578 439.621 318.444 439.608 318.31 439.596C317.658 439.502 317.062 439.19 316.632 438.715C316.201 438.24 315.964 437.634 315.963 437.006V333.232C315.964 332.539 316.254 331.875 316.769 331.385C317.285 330.894 317.983 330.619 318.712 330.618H503.96C504.321 330.617 504.679 330.684 505.013 330.816C505.347 330.947 505.65 331.139 505.906 331.382C506.161 331.625 506.364 331.914 506.501 332.231C506.639 332.549 506.71 332.889 506.709 333.232Z" fill="white"/>
<path d="M305.035 142.468C304.724 142.468 304.425 142.586 304.205 142.795C303.985 143.005 303.861 143.289 303.86 143.585V289.617C303.861 289.914 303.985 290.198 304.205 290.407C304.425 290.617 304.724 290.734 305.035 290.735H518.965C519.277 290.734 519.575 290.617 519.795 290.407C520.016 290.198 520.14 289.914 520.14 289.617V143.585C520.14 143.289 520.016 143.005 519.795 142.795C519.575 142.586 519.277 142.468 518.965 142.468L305.035 142.468Z" fill="#3F3D56"/>
<path d="M507.157 154.523V258.297C507.156 258.99 506.866 259.655 506.351 260.145C505.835 260.635 505.136 260.911 504.408 260.912H319.16C319.025 260.912 318.892 260.899 318.758 260.886C318.105 260.793 317.51 260.481 317.079 260.006C316.648 259.53 316.411 258.924 316.41 258.297V154.523C316.411 153.83 316.701 153.165 317.217 152.675C317.732 152.185 318.431 151.909 319.16 151.908H504.408C504.769 151.908 505.127 151.975 505.461 152.106C505.794 152.237 506.098 152.43 506.353 152.673C506.608 152.916 506.811 153.204 506.949 153.522C507.087 153.839 507.157 154.179 507.157 154.523V154.523Z" fill="white"/>
<path d="M507.157 232.188V258.297C507.156 258.99 506.866 259.655 506.351 260.145C505.835 260.635 505.136 260.911 504.408 260.912H319.16C319.025 260.912 318.892 260.899 318.758 260.886C318.105 260.793 317.51 260.481 317.079 260.006C316.648 259.53 316.411 258.924 316.41 258.297V217.048L316.423 217.035L316.947 214.152C318.329 207.532 326.308 203.744 333.39 204.242C340.472 204.739 346.829 208.349 352.971 211.729C359.114 215.122 365.713 218.463 372.808 218.336C387.253 218.081 397.902 203.846 412.293 202.532C434.785 200.466 449.713 229.943 472.272 228.871C481.982 228.412 491.961 222.188 500.719 226.18C503.484 227.478 505.74 229.583 507.157 232.188V232.188Z" fill="#F0F0F0"/>
<path d="M373.522 187.193C399.099 187.193 419.833 167.474 419.833 143.15C419.833 118.826 399.099 99.1078 373.522 99.1078C347.945 99.1078 327.21 118.826 327.21 143.15C327.21 167.474 347.945 187.193 373.522 187.193Z" fill="#F4D58D"/>
<path d="M350.655 124.645C386.856 124.645 416.202 96.7422 416.202 62.3224C416.202 27.9027 386.856 0 350.655 0C314.455 0 285.109 27.9027 285.109 62.3224C285.109 96.7422 314.455 124.645 350.655 124.645Z" fill="#F4D58D"/>
<path d="M306.37 160.767C331.947 160.767 352.681 141.049 352.681 116.725C352.681 92.4008 331.947 72.6824 306.37 72.6824C280.793 72.6824 260.058 92.4008 260.058 116.725C260.058 141.049 280.793 160.767 306.37 160.767Z" fill="#F4D58D"/>
<path d="M380.16 263.125C380.363 263.125 380.56 263.055 380.713 262.928C380.867 262.801 380.967 262.626 380.996 262.435C381.032 262.195 384.548 238.076 381.39 206.02C378.473 176.416 369.107 133.776 341.048 98.7564C340.981 98.6722 340.897 98.6015 340.801 98.5482C340.705 98.4949 340.599 98.4602 340.489 98.4459C340.378 98.4317 340.266 98.4382 340.159 98.4652C340.052 98.4922 339.951 98.539 339.862 98.603C339.774 98.6671 339.7 98.7471 339.644 98.8384C339.588 98.9298 339.552 99.0307 339.537 99.1355C339.522 99.2402 339.529 99.3467 339.558 99.4488C339.586 99.5509 339.636 99.6467 339.703 99.7306C367.52 134.448 376.811 176.775 379.707 206.17C382.847 238.039 379.358 261.97 379.322 262.208C379.305 262.322 379.314 262.438 379.349 262.549C379.383 262.659 379.442 262.761 379.521 262.848C379.601 262.935 379.699 263.005 379.809 263.053C379.919 263.1 380.039 263.125 380.16 263.125V263.125Z" fill="#3F3D56"/>
<path d="M366.134 145.062C366.312 145.062 366.486 145.009 366.631 144.909C366.775 144.809 366.883 144.669 366.938 144.507C366.993 144.346 366.993 144.172 366.938 144.01C366.883 143.849 366.775 143.708 366.631 143.608C358.636 138.462 349.999 134.28 340.919 131.161C326.733 126.222 305.161 121.744 282.954 128.466C282.848 128.498 282.749 128.549 282.664 128.617C282.579 128.685 282.509 128.768 282.458 128.862C282.406 128.956 282.375 129.058 282.366 129.164C282.356 129.269 282.369 129.375 282.402 129.476C282.436 129.577 282.49 129.67 282.562 129.751C282.634 129.832 282.722 129.898 282.82 129.946C282.919 129.995 283.027 130.024 283.138 130.033C283.249 130.042 283.36 130.03 283.466 129.997C305.219 123.414 326.4 127.817 340.338 132.67C349.272 135.736 357.77 139.847 365.637 144.909C365.782 145.008 365.955 145.062 366.134 145.062V145.062Z" fill="#3F3D56"/>
<path d="M463.066 210.531C479.924 210.531 493.59 197.535 493.59 181.503C493.59 165.471 479.924 152.475 463.066 152.475C446.208 152.475 432.543 165.471 432.543 181.503C432.543 197.535 446.208 210.531 463.066 210.531Z" fill="#E51C1C"/>
<path d="M478.137 169.306C501.997 169.306 521.338 150.916 521.338 128.23C521.338 105.544 501.997 87.154 478.137 87.154C454.278 87.154 434.936 105.544 434.936 128.23C434.936 150.916 454.278 169.306 478.137 169.306Z" fill="#E51C1C"/>
<path d="M507.325 193.114C524.183 193.114 537.849 180.118 537.849 164.086C537.849 148.055 524.183 135.058 507.325 135.058C490.468 135.058 476.802 148.055 476.802 164.086C476.802 180.118 490.468 193.114 507.325 193.114Z" fill="#E51C1C"/>
<path d="M458.691 260.577C458.557 260.577 458.427 260.531 458.326 260.448C458.225 260.364 458.159 260.249 458.14 260.122C456.684 247.771 456.597 235.309 457.88 222.94C459.803 203.428 465.976 175.325 484.469 152.244C484.514 152.188 484.569 152.142 484.632 152.107C484.696 152.072 484.765 152.049 484.838 152.04C484.91 152.03 484.984 152.035 485.055 152.052C485.126 152.07 485.192 152.101 485.25 152.143C485.308 152.185 485.357 152.238 485.394 152.298C485.431 152.358 485.455 152.425 485.465 152.494C485.474 152.563 485.47 152.633 485.451 152.7C485.432 152.767 485.4 152.83 485.356 152.886C467.022 175.767 460.898 203.665 458.989 223.039C457.713 235.325 457.798 247.704 459.243 259.973C459.254 260.048 459.248 260.125 459.226 260.197C459.203 260.27 459.164 260.338 459.112 260.395C459.06 260.452 458.995 260.498 458.922 260.53C458.85 260.561 458.771 260.577 458.691 260.577V260.577Z" fill="#3F3D56"/>
<path d="M467.935 182.763C467.818 182.763 467.703 182.728 467.608 182.662C467.513 182.596 467.442 182.504 467.405 182.397C467.369 182.291 467.369 182.176 467.405 182.07C467.442 181.963 467.512 181.871 467.608 181.805C472.877 178.413 478.57 175.657 484.554 173.601C493.904 170.346 508.122 167.394 522.759 171.825C522.828 171.846 522.893 171.88 522.949 171.924C523.005 171.969 523.051 172.024 523.084 172.086C523.118 172.148 523.138 172.215 523.145 172.285C523.151 172.354 523.143 172.424 523.12 172.49C523.098 172.556 523.062 172.618 523.015 172.671C522.968 172.724 522.91 172.768 522.845 172.8C522.781 172.832 522.71 172.851 522.637 172.857C522.564 172.863 522.49 172.855 522.421 172.834C508.084 168.495 494.124 171.397 484.937 174.596C479.049 176.617 473.448 179.326 468.262 182.662C468.167 182.728 468.053 182.763 467.935 182.763V182.763Z" fill="#3F3D56"/>
<path d="M503.96 440.484H411.488V383.924H507.617V437.006C507.616 437.928 507.231 438.812 506.545 439.464C505.859 440.117 504.93 440.483 503.96 440.484V440.484ZM413.304 438.758H503.96C504.448 438.757 504.916 438.572 505.262 438.244C505.607 437.916 505.801 437.471 505.802 437.006V385.651H413.304V438.758Z" fill="#E4E4E4"/>
<path d="M503.96 440.484H431.606V399.23H507.617V437.006C507.616 437.928 507.231 438.812 506.545 439.464C505.859 440.117 504.93 440.483 503.96 440.484V440.484ZM433.422 438.758H503.96C504.448 438.757 504.916 438.572 505.262 438.244C505.607 437.916 505.801 437.471 505.802 437.006V400.957H433.422V438.758Z" fill="#E4E4E4"/>
<path d="M503.96 440.484H454.407V415.812H507.617V437.006C507.616 437.928 507.231 438.812 506.545 439.464C505.859 440.117 504.93 440.483 503.96 440.484V440.484ZM456.222 438.758H503.96C504.448 438.757 504.916 438.572 505.262 438.244C505.607 437.916 505.801 437.471 505.802 437.006V417.538H456.222V438.758Z" fill="#E4E4E4"/>
<path d="M382.889 387.339C394.741 387.339 404.349 378.202 404.349 366.931C404.349 355.66 394.741 346.523 382.889 346.523C371.038 346.523 361.43 355.66 361.43 366.931C361.43 378.202 371.038 387.339 382.889 387.339Z" fill="#E4E4E4"/>
<path d="M123.304 568.287H111.676C110.198 568.285 108.781 567.726 107.736 566.732C106.69 565.738 106.103 564.391 106.101 562.985V470.815C106.103 469.41 106.69 468.062 107.736 467.068C108.781 466.074 110.198 465.515 111.676 465.513H123.304C124.782 465.515 126.2 466.074 127.245 467.068C128.29 468.062 128.878 469.41 128.879 470.815V562.985C128.878 564.391 128.29 565.738 127.245 566.732C126.2 567.726 124.782 568.285 123.304 568.287V568.287Z" fill="#F4D58D"/>
<path d="M94.7899 568.287H83.1613C81.6832 568.285 80.2661 567.726 79.221 566.732C78.1758 565.738 77.5879 564.391 77.5862 562.985V470.815C77.5879 469.41 78.1758 468.062 79.221 467.068C80.2661 466.074 81.6832 465.515 83.1613 465.513H94.7899C96.268 465.515 97.6851 466.074 98.7302 467.068C99.7754 468.062 100.363 469.41 100.365 470.815V562.985C100.363 564.391 99.7754 565.738 98.7302 566.732C97.6851 567.726 96.268 568.285 94.7899 568.287V568.287Z" fill="#F4D58D"/>
<path d="M106.562 349.558C132.132 349.558 152.861 329.846 152.861 305.529C152.861 281.212 132.132 261.499 106.562 261.499C80.9923 261.499 60.2638 281.212 60.2638 305.529C60.2638 329.846 80.9923 349.558 106.562 349.558Z" fill="#F4D58D"/>
<path d="M124.377 320.142C127.305 319.511 130.949 318.726 133.365 316.235C134.079 315.469 134.609 314.564 134.917 313.583C135.224 312.602 135.303 311.569 135.146 310.556C135.049 309.833 134.778 309.142 134.354 308.536C133.929 307.93 133.363 307.425 132.699 307.061C130.979 306.154 128.768 306.28 126.582 307.364L125.516 290.206L123.704 290.307L124.957 310.479L126.297 309.56C127.851 308.493 130.117 307.674 131.818 308.571C132.24 308.81 132.597 309.138 132.864 309.53C133.13 309.922 133.298 310.367 133.354 310.831C133.466 311.585 133.406 312.354 133.177 313.084C132.949 313.815 132.557 314.49 132.03 315.064C130.15 317.003 127.27 317.748 123.976 318.458L124.377 320.142Z" fill="#2F2E41"/>
<path d="M144.136 288.205L134.543 290.007L134.895 291.701L144.488 289.899L144.136 288.205Z" fill="#2F2E41"/>
<path d="M113.856 293.893L104.262 295.695L104.614 297.389L114.207 295.587L113.856 293.893Z" fill="#2F2E41"/>
<path d="M117.95 487.35H63.971C62.4065 487.348 60.9067 486.756 59.8005 485.704C58.6942 484.652 58.072 483.226 58.0702 481.738V404.705C58.0842 392.969 62.9925 381.718 71.7184 373.42C80.4442 365.121 92.275 360.454 104.615 360.44H146.582C148.146 360.442 149.646 361.034 150.752 362.086C151.859 363.138 152.481 364.564 152.483 366.052V454.509C152.472 463.216 148.831 471.564 142.357 477.72C135.883 483.877 127.105 487.34 117.95 487.35V487.35Z" fill="#2F2E41"/>
<path d="M112.603 473.62L112.602 473.601C111.296 473.556 110.055 473.048 109.123 472.177C108.192 471.306 107.636 470.134 107.567 468.893L103.155 388.279C103.014 385.694 103.921 383.155 105.688 381.185C107.456 379.215 109.95 377.965 112.657 377.69C115.365 377.416 118.08 378.139 120.244 379.711C122.408 381.282 123.856 383.583 124.291 386.139C124.351 386.499 124.391 386.863 124.411 387.227L128.823 467.841C128.895 469.157 128.414 470.447 127.487 471.426C126.559 472.405 125.26 472.993 123.876 473.062L112.603 473.62Z" fill="#F4D58D"/>
<path d="M97.8826 286.145C99.3771 281.884 104.569 280.24 108.887 280.112C114.958 279.933 120.885 281.983 126.975 281.067C138.022 279.404 144.918 269.279 147.067 259.587C148.501 253.122 148.374 246.495 148.212 239.925C148.222 239.672 148.155 239.421 148.019 239.203C147.883 238.985 147.683 238.81 147.444 238.697C147.206 238.584 146.938 238.54 146.673 238.568C146.408 238.597 146.158 238.698 145.952 238.859C141.535 241.725 138.36 246.015 137.014 250.936L139.659 251.456L141.05 239.982C141.069 239.698 140.99 239.416 140.826 239.178C140.661 238.94 140.42 238.759 140.138 238.663C135.994 237.29 132.54 240.388 130.285 243.318C129.118 244.836 127.997 246.489 126.262 247.477C124.455 248.414 122.387 248.795 120.342 248.568C116.121 248.277 112.118 246.76 107.983 246.009C104.185 245.337 100.313 245.132 96.4601 245.4C88.8357 245.909 81.4462 248.126 74.8951 251.871C68.3515 255.62 62.3608 260.979 58.8879 267.522C56.905 271.257 55.8285 275.557 56.9177 279.698C57.3537 281.579 58.2471 283.336 59.5262 284.83C60.8053 286.323 62.4346 287.511 64.2833 288.297C65.9045 288.943 66.7864 286.491 65.1762 285.85C63.7 285.185 62.4128 284.193 61.4221 282.958C60.4313 281.723 59.7659 280.28 59.4814 278.75C58.7028 275.305 59.6561 271.74 61.3161 268.654C64.549 262.644 70.0826 257.646 76.1143 254.187C82.2545 250.67 89.1661 248.548 96.3101 247.989C99.8048 247.724 103.32 247.87 106.778 248.422C110.656 249.037 114.366 250.357 118.253 250.94C122.519 251.58 126.946 251.017 129.999 247.86C132.244 245.538 135.019 239.71 139.245 241.11L138.333 239.791L136.942 251.265C136.768 252.7 139.197 253.219 139.587 251.785C140.8 247.294 143.708 243.384 147.756 240.8L145.495 239.734C145.764 250.626 146.004 262.665 138.37 271.591C136.789 273.543 134.814 275.174 132.56 276.39C130.306 277.605 127.82 278.38 125.247 278.668C119.347 279.171 113.554 277.139 107.645 277.608C102.536 278.014 97.0393 280.363 95.3091 285.296C95.2048 285.617 95.2357 285.964 95.3953 286.263C95.5549 286.563 95.8307 286.792 96.1645 286.902C96.4983 287.013 96.864 286.995 97.1846 286.854C97.5051 286.712 97.7553 286.458 97.8825 286.145H97.8826Z" fill="#2F2E41"/>
<path d="M588.702 569H1.08097C0.794831 568.999 0.520691 568.891 0.318656 568.698C0.11662 568.505 0.00317383 568.244 0.00317383 567.972C0.00317383 567.7 0.11662 567.439 0.318656 567.246C0.520691 567.053 0.794831 566.945 1.08097 566.944H588.702C588.988 566.945 589.263 567.053 589.465 567.246C589.667 567.439 589.78 567.7 589.78 567.972C589.78 568.244 589.667 568.505 589.465 568.698C589.263 568.891 588.988 568.999 588.702 569V569Z" fill="#3F3D56"/>
</g>
<defs>
<clipPath id="clip0_4_105">
<rect width="709" height="569" fill="white"/>
</clipPath>
</defs>
</svg>
